<?xml version="1.0" encoding="iso-8859-1"?>
<!-- Generator: Adobe Illustrator 19.0.0, SVG Export Plug-In . SVG Version: 6.00 Build 0)  -->
<svg version="1.1" id="Layer_1" xmlns="http://www.w3.org/2000/svg" xmlns:xlink="http://www.w3.org/1999/xlink" x="0px" y="0px" height="10" width="10"
	 viewBox="0 0 512 512" style="enable-background:new 0 0 512 512;" xml:space="preserve">
<g>
	<path style="fill:#5A482E;" d="M378.93,449.306v31.714c0,2.964,2.425,5.39,5.39,5.39h37.252c2.964,0,5.39-2.425,5.39-5.39v-31.714
		H378.93z"/>
	<path style="fill:#5A482E;" d="M58.041,481.02c0,2.964,2.425,5.39,5.39,5.39h37.254c2.964,0,5.39-2.425,5.39-5.39v-31.714H58.041
		V481.02z"/>
</g>
<path style="fill:#BF953E;" d="M290.763,64.821H194.24c-2.963,0-5.39,2.425-5.39,5.39v25.333c0,2.963,2.425,5.39,5.39,5.39h96.522
	c2.964,0,5.39-2.425,5.39-5.39V70.211C296.152,67.246,293.726,64.821,290.763,64.821z"/>
<path style="opacity:0.1;enable-background:new    ;" d="M401.517,481.02v-31.714h-22.585v31.714c0,2.964,2.425,5.39,5.39,5.39
	h22.584C403.941,486.409,401.517,483.984,401.517,481.02z"/>
<path style="opacity:0.1;enable-background:new    ;" d="M80.302,481.02v-31.714H58.041v31.714c0,2.964,2.425,5.39,5.39,5.39h22.263
	C82.729,486.409,80.302,483.984,80.302,481.02z"/>
<path style="opacity:0.1;enable-background:new    ;" d="M211.217,95.543V70.211c0-2.964,2.425-5.39,5.39-5.39H194.24
	c-2.963,0-5.39,2.425-5.39,5.39v25.333c0,2.963,2.425,5.39,5.39,5.39h22.366C213.642,100.933,211.217,98.507,211.217,95.543z"/>
<path style="fill:#EFBA50;" d="M421.508,267.971c0,2.964-2.425,5.39-5.389,5.39H68.886c-2.964,0-5.39-2.425-5.39-5.39V95.577
	c0-2.964,2.425-5.39,5.39-5.39h347.232c2.963,0,5.389,2.425,5.389,5.39v172.395H421.508z"/>
<path style="opacity:0.1;enable-background:new    ;" d="M97.4,267.971V95.577c0-2.964,2.425-5.39,5.39-5.39H68.886
	c-2.964,0-5.39,2.425-5.39,5.39v172.395c0,2.964,2.425,5.39,5.39,5.39h33.903C99.825,273.361,97.4,270.936,97.4,267.971z"/>
<path style="fill:#D69EF0;" d="M154.784,278.082c-1.414,1.414-3.393,2.117-5.395,1.917l-96.233-9.616
	c-2.949-0.295-5.378-2.479-5.987-5.382l-8.206-39.119c-0.466-2.22,0.214-4.517,1.807-6.11l55.704-55.705
	c1.593-1.593,3.889-2.273,6.112-1.808l39.118,8.207c2.904,0.609,5.087,3.039,5.381,5.987l9.617,96.233
	C156.902,274.688,156.198,276.667,154.784,278.082z"/>
<path style="fill:#BC81E2;" d="M116.209,201.869l29.22-29.22c-0.953-1.087-2.244-1.874-3.726-2.184l-39.12-8.206
	c-1.159-0.245-2.335-0.168-3.425,0.182l9.793,46.686l-23.118,23.119l-46.686-9.793c-0.348,1.089-0.425,2.266-0.181,3.426
	l8.206,39.12c0.311,1.481,1.097,2.773,2.184,3.725L78.69,239.39l76.105,38.701L116.209,201.869z"/>
<polygon style="fill:#EFC7FF;" points="68.594,191.947 78.572,239.507 116.209,201.869 68.65,191.893 "/>
<path style="opacity:0.1;enable-background:new    ;" d="M65.785,257.753c-2.949-0.295-5.378-2.479-5.987-5.381l-8.206-39.119
	c-0.466-2.219,0.214-4.517,1.807-6.11l-12.628,12.629c-1.593,1.592-2.274,3.889-1.807,6.11l8.206,39.119
	c0.609,2.903,3.039,5.088,5.987,5.382l96.233,9.616C151.391,280.199,65.785,257.753,65.785,257.753z"/>
<path style="fill:#F5BFB6;" d="M259.222,245.342c-1.61,0-3.217-0.613-4.444-1.841l-50.861-50.903
	c-1.179-1.179-1.839-2.778-1.839-4.445c0-1.667,0.66-3.265,1.839-4.445l50.861-50.903c1.226-1.227,2.834-1.84,4.444-1.84
	c1.606,0,3.212,0.612,4.438,1.84l50.864,50.903c1.176,1.18,1.839,2.778,1.839,4.445c0,1.667-0.664,3.267-1.839,4.445l-50.864,50.903
	C262.434,244.729,260.828,245.342,259.222,245.342z"/>
<g>
	<path style="fill:#E8A09C;" d="M314.524,183.708l-50.864-50.903c-1.17-1.172-2.692-1.778-4.226-1.831v56.965h56.918
		C316.298,186.35,315.649,184.837,314.524,183.708z"/>
	<path style="fill:#E8A09C;" d="M203.918,192.598l50.861,50.903c1.132,1.131,2.585,1.735,4.064,1.823v-56.793h-56.746
		C202.188,190.061,202.83,191.508,203.918,192.598z"/>
</g>
<path style="fill:#E28883;" d="M259.222,210.872c-0.807,0-1.61-0.306-2.224-0.918l-19.563-19.577
	c-0.587-0.59-0.917-1.391-0.917-2.224c0-0.834,0.33-1.633,0.917-2.221l19.563-19.579c0.613-0.612,1.417-0.92,2.224-0.92
	c0.802,0,1.606,0.307,2.218,0.92l19.564,19.579c0.586,0.589,0.917,1.389,0.917,2.221c0,0.833-0.33,1.633-0.917,2.224l-19.564,19.577
	C260.828,210.567,260.025,210.872,259.222,210.872z"/>
<path style="fill:#37C4B3;" d="M463.447,210.829l-27.063-41.644c-1.539-2.364-4.143-3.787-6.935-3.787H331.9
	c-2.79,0-5.396,1.423-6.932,3.787l-27.067,41.644c-2.008,3.091-1.793,7.15,0.531,10.005l43.096,52.929h78.292l43.096-52.93
	C465.241,217.978,465.457,213.919,463.447,210.829z"/>
<g>
	<path style="fill:#53E7D3;" d="M324.97,169.184l-27.068,41.644c-1.024,1.577-1.467,3.406-1.348,5.2h63.879l-32.304-49.7
		C326.869,166.98,325.771,167.949,324.97,169.184z"/>
	<path style="fill:#53E7D3;" d="M463.447,210.829l-27.067-41.644c-0.802-1.235-1.898-2.204-3.158-2.855l-32.305,49.7h63.882
		C464.917,214.234,464.474,212.405,463.447,210.829z"/>
</g>
<path style="opacity:0.1;enable-background:new    ;" d="M341.528,273.763h19.724l-43.096-52.93
	c-2.325-2.855-2.539-6.914-0.53-10.005l27.066-41.644c1.535-2.364,4.142-3.787,6.933-3.787h-19.726c-2.79,0-5.396,1.423-6.932,3.787
	L297.9,210.828c-2.008,3.091-1.793,7.15,0.531,10.005L341.528,273.763z"/>
<g>
	<polygon style="fill:#53E7D3;" points="413.63,215.4 413.223,215.4 413.495,215.819 	"/>
	<polygon style="fill:#53E7D3;" points="348.127,215.4 347.718,215.4 347.854,215.819 	"/>
	<polygon style="fill:#53E7D3;" points="347.923,216.029 366.639,273.763 394.71,273.763 413.426,216.029 	"/>
</g>
<polygon style="fill:#B9F5ED;" points="380.627,165.398 347.718,216.029 413.63,216.029 380.722,165.398 "/>
<g>
	<circle style="fill:#FFFFFF;" cx="166.619" cy="263.753" r="25.339"/>
	<path style="fill:#FFFFFF;" d="M267.538,218.828c-13.75-2.593-27,6.448-29.594,20.198c-2.597,13.747,6.446,26.996,20.194,29.59
		c13.749,2.598,27-6.443,29.595-20.194C290.328,234.675,281.288,221.424,267.538,218.828z"/>
	<circle style="fill:#FFFFFF;" cx="212.783" cy="244.318" r="25.339"/>
	<path style="fill:#FFFFFF;" d="M323.158,240.748c-11.766-7.572-27.443-4.169-35.018,7.597c-7.568,11.766-4.168,27.444,7.598,35.013
		c11.768,7.573,27.443,4.172,35.016-7.595C338.324,263.996,334.926,248.317,323.158,240.748z"/>
</g>
<path style="fill:#BF953E;" d="M447.937,454.479c0,2.964-2.425,5.39-5.39,5.39H42.456c-2.963,0-5.39-2.425-5.39-5.39V268.101
	c0-2.964,2.425-5.39,5.39-5.39h400.091c2.964,0,5.39,2.425,5.39,5.39V454.479z"/>
<path style="opacity:0.1;enable-background:new    ;" d="M70.602,454.479V268.101c0-2.964,2.425-5.39,5.39-5.39H42.455
	c-2.963,0-5.39,2.425-5.39,5.39v186.378c0,2.964,2.425,5.39,5.39,5.39h33.536C73.028,459.868,70.602,457.444,70.602,454.479z"/>
<path style="fill:#EFBA50;" d="M73.868,428.271c-2.964,0-5.39-2.425-5.39-5.39V299.696c0-2.964,2.425-5.39,5.39-5.39h337.267
	c2.964,0,5.39,2.425,5.39,5.39v123.186c0,2.964-2.425,5.39-5.39,5.39H73.868z"/>
<path style="opacity:0.1;enable-background:new    ;" d="M101.976,422.882V299.696c0-2.964,2.425-5.39,5.39-5.39H73.868
	c-2.964,0-5.39,2.425-5.39,5.39v123.186c0,2.964,2.425,5.39,5.39,5.39h33.497C104.401,428.271,101.976,425.846,101.976,422.882z"/>
<path style="fill:#A87B2C;" d="M197.267,262.711v100.973c0,2.964,2.425,5.39,5.39,5.39h79.688c2.964,0,5.39-2.425,5.39-5.39V262.711
	H197.267z"/>
<path style="fill:#FDF276;" d="M175.869,171.924c-1.861,0-3.485-1.237-3.98-3.02c-3.923-14.17-6.434-16.669-20.645-20.581
	c-1.792-0.493-3.033-2.116-3.033-3.965c0-1.853,1.241-3.473,3.033-3.965c14.211-3.913,16.722-6.411,20.645-20.581
	c0.495-1.783,2.119-3.017,3.98-3.017c1.857,0,3.485,1.234,3.979,3.017c3.923,14.17,6.43,16.668,20.648,20.581
	c1.789,0.492,3.025,2.113,3.025,3.965c0,1.849-1.236,3.472-3.025,3.965c-14.218,3.912-16.726,6.411-20.648,20.581
	C179.354,170.687,177.727,171.924,175.869,171.924z"/>
<g>
	<path style="fill:#FFC753;" d="M508.667,136.319c-15.659-4.308-18.421-7.061-22.741-22.668c-0.545-1.966-2.337-3.325-4.383-3.325
		c-2.05,0-3.84,1.358-4.383,3.325c-4.323,15.607-7.087,18.36-22.741,22.668c-1.972,0.543-3.341,2.329-3.341,4.369
		c0,2.039,1.37,3.824,3.341,4.369c15.654,4.308,18.418,7.061,22.741,22.667c0.543,1.964,2.333,3.327,4.383,3.327
		c2.046,0,3.839-1.363,4.383-3.327c4.321-15.607,7.081-18.36,22.741-22.667c1.971-0.543,3.333-2.33,3.333-4.369
		C512,138.649,510.637,136.863,508.667,136.319z"/>
	<path style="fill:#FFC753;" d="M57.59,51.583c-15.659-4.307-18.418-7.061-22.741-22.667c-0.545-1.966-2.337-3.326-4.383-3.326
		c-2.05,0-3.84,1.359-4.385,3.326c-4.321,15.607-7.085,18.36-22.739,22.667C1.369,52.127,0,53.913,0,55.952
		c0,2.038,1.369,3.823,3.341,4.368c15.654,4.309,18.418,7.062,22.739,22.668c0.545,1.964,2.334,3.327,4.385,3.327
		c2.046,0,3.838-1.363,4.383-3.327c4.322-15.607,7.082-18.36,22.741-22.668c1.971-0.544,3.332-2.329,3.332-4.368
		C60.922,53.913,59.56,52.127,57.59,51.583z"/>
</g>
<path style="fill:#5A482E;" d="M258.999,300.534c0-9.165-7.384-16.594-16.498-16.594c-9.108,0-16.497,7.429-16.497,16.594
	c0,6.311,3.505,11.798,8.66,14.602v24.978c0,4.328,3.509,7.837,7.837,7.837s7.837-3.509,7.837-7.837v-24.976
	C255.495,312.333,258.999,306.846,258.999,300.534z"/>
<path style="opacity:0.1;enable-background:new    ;" d="M197.267,262.711v100.973c0,2.964,2.425,5.39,5.39,5.39h22.16
	c-2.964,0-5.39-2.425-5.39-5.39V262.711H197.267z"/>
</svg>
