<?xml version="1.0" encoding="iso-8859-1"?>
<!-- Generator: Adobe Illustrator 19.0.0, SVG Export Plug-In . SVG Version: 6.00 Build 0)  -->
<svg version="1.1" id="Layer_1" xmlns="http://www.w3.org/2000/svg" xmlns:xlink="http://www.w3.org/1999/xlink" x="0px" y="0px"
	 viewBox="0 0 512 512" style="enable-background:new 0 0 512 512;" xml:space="preserve" width="1280pt" height="1280pt">
<g>
	<polygon style="fill:#4FBA6F;" points="185.379,317.793 326.621,317.793 326.621,229.517 185.379,229.517 	"/>
	<polygon style="fill:#DF4D60;" points="185.379,406.069 326.621,406.069 326.621,317.793 185.379,317.793 	"/>
	<polygon style="fill:#8697CB;" points="185.379,494.345 326.621,494.345 326.621,406.069 185.379,406.069 	"/>
	<g>
		<polygon style="fill:#F3D55B;" points="203.034,141.241 238.345,141.241 238.345,105.931 203.034,105.931 		"/>
		<polygon style="fill:#F3D55B;" points="273.655,141.241 308.966,141.241 308.966,105.931 273.655,105.931 		"/>
	</g>
	<path style="fill:#F0C419;" d="M326.621,229.515H185.379v-70.621c0-9.754,7.901-17.655,17.655-17.655h105.931
		c9.754,0,17.655,7.901,17.655,17.655V229.515z"/>
	<polygon style="fill:#00B1E8;" points="0,406.069 141.241,406.069 141.241,317.793 0,317.793 	"/>
	<polygon style="fill:#DF4D60;" points="0,494.345 141.241,494.345 141.241,406.069 0,406.069 	"/>
	<g>
		<polygon style="fill:#F49853;" points="17.655,229.517 52.966,229.517 52.966,194.207 17.655,194.207 		"/>
		<polygon style="fill:#F49853;" points="88.276,229.517 123.586,229.517 123.586,194.207 88.276,194.207 		"/>
	</g>
	<path style="fill:#E57E25;" d="M141.241,317.79H0V247.17c0-9.755,7.901-17.655,17.655-17.655h105.931
		c9.754,0,17.655,7.901,17.655,17.655V317.79z"/>
	<polygon style="fill:#F0C419;" points="370.759,229.517 512,229.517 512,141.241 370.759,141.241 	"/>
	<polygon style="fill:#E57E25;" points="370.759,317.793 512,317.793 512,229.517 370.759,229.517 	"/>
	<polygon style="fill:#4FBA6F;" points="370.759,406.069 512,406.069 512,317.793 370.759,317.793 	"/>
	<polygon style="fill:#DF4D60;" points="370.759,494.345 512,494.345 512,406.069 370.759,406.069 	"/>
	<g>
		<polygon style="fill:#ACBDEB;" points="388.414,52.966 423.724,52.966 423.724,17.655 388.414,17.655 		"/>
		<polygon style="fill:#ACBDEB;" points="459.034,52.966 494.345,52.966 494.345,17.655 459.034,17.655 		"/>
	</g>
	<path style="fill:#8697CB;" d="M512,141.239H370.759V70.618c0-9.754,7.901-17.655,17.655-17.655h105.931
		c9.754,0,17.655,7.901,17.655,17.655V141.239z"/>
</g>
<g>
</g>
<g>
</g>
<g>
</g>
<g>
</g>
<g>
</g>
<g>
</g>
<g>
</g>
<g>
</g>
<g>
</g>
<g>
</g>
<g>
</g>
<g>
</g>
<g>
</g>
<g>
</g>
<g>
</g>
</svg>
