<svg width="96" height="88" viewBox="0 0 96 88" fill="none" xmlns="http://www.w3.org/2000/svg">
<path d="M62.3751 21C62.0327 21.0005 61.7026 20.8694 61.4497 20.6327C61.3161 20.508 61.2078 20.3576 61.1309 20.19C61.054 20.0224 61.01 19.8409 61.0015 19.6559C60.993 19.4708 61.0202 19.2859 61.0814 19.1116C61.1426 18.9374 61.2367 18.7772 61.3583 18.6402C64.3958 15.2176 68.1438 13.0181 72.1974 12.2798C75.5571 11.6684 79.0963 12.0664 82.1623 13.4017C82.498 13.548 82.7633 13.8251 82.8999 14.1719C83.0365 14.5187 83.0332 14.907 82.8907 15.2513C82.748 15.5956 82.4778 15.8676 82.1395 16.0076C81.8012 16.1477 81.4225 16.1442 81.0868 15.998C76.3223 13.9231 69.1724 14.0261 63.3926 20.5387C63.2639 20.6842 63.1068 20.8005 62.9315 20.8799C62.7563 20.9594 62.5667 21.0003 62.3751 21V21Z" fill="#D0C9BF"/>
<path d="M65.1869 28.935L67.4807 26.6414C70.2287 23.8935 70.2287 19.4385 67.4807 16.6906L64.8507 14.0609C62.1027 11.313 57.6473 11.313 54.8992 14.0609L50.971 17.9888C46.5338 16.0705 41.6417 15.0055 36.5 15.0055C16.3416 15.0055 0 31.3458 0 51.5027C0 71.6596 16.3416 88 36.5 88C56.6584 88 73 71.6596 73 51.5027C73 42.9831 70.0802 35.1454 65.1869 28.935V28.935Z" fill="#384C59"/>
<path d="M86.3833 14.0001C86.3833 16.3357 84.5116 18.2361 82.211 18.2361C79.9104 18.2361 78.0389 16.3357 78.0389 14.0001C78.0389 11.6645 79.9104 9.76413 82.211 9.76413C84.5116 9.76413 86.3833 11.6645 86.3833 14.0001ZM83.7843 6.85908V1.59733C83.7843 0.715098 83.0799 0 82.211 0C81.3421 0 80.6378 0.715098 80.6378 1.59733V6.85908C80.6378 7.28272 80.8035 7.689 81.0986 7.98856C81.3936 8.28812 81.7938 8.45641 82.211 8.45641C82.6283 8.45641 83.0284 8.28812 83.3235 7.98856C83.6185 7.689 83.7843 7.28272 83.7843 6.85908ZM78.3502 10.08C78.4963 9.93168 78.6122 9.7556 78.6913 9.5618C78.7704 9.368 78.8111 9.16029 78.8111 8.95052C78.8111 8.74075 78.7704 8.53303 78.6913 8.33923C78.6122 8.14544 78.4963 7.96935 78.3502 7.82104L74.6858 4.10046C74.3897 3.80572 73.9911 3.64153 73.5765 3.6436C73.1619 3.64566 72.7649 3.8138 72.4717 4.11147C72.1786 4.40914 72.013 4.81227 72.011 5.23321C72.009 5.65416 72.1707 6.05889 72.4611 6.35941L76.1255 10.08C76.4327 10.3918 76.8353 10.5478 77.238 10.5478C77.6406 10.5478 78.0431 10.3918 78.3502 10.08V10.08ZM74.6858 23.8993L78.3502 20.1788C78.6405 19.8782 78.8023 19.4735 78.8003 19.0526C78.7983 18.6316 78.6327 18.2285 78.3396 17.9308C78.0464 17.6332 77.6494 17.465 77.2348 17.463C76.8202 17.4609 76.4215 17.6251 76.1255 17.9198L72.4611 21.6404C72.2409 21.8638 72.091 22.1484 72.0303 22.4583C71.9695 22.7681 72.0007 23.0893 72.1197 23.3813C72.2388 23.6732 72.4405 23.9227 72.6993 24.0982C72.9581 24.2737 73.2623 24.3673 73.5735 24.3672C73.7801 24.3675 73.9847 24.3263 74.1756 24.246C74.3665 24.1657 74.5399 24.0479 74.6858 23.8993V23.8993ZM83.7843 26.4027V21.1409C83.7843 20.2587 83.0799 19.5436 82.211 19.5436C81.3421 19.5436 80.6378 20.2587 80.6378 21.1409V26.4027C80.6378 27.2849 81.3421 28 82.211 28C83.0799 28 83.7843 27.2849 83.7843 26.4027V26.4027ZM91.9612 23.8993C92.1073 23.751 92.2232 23.575 92.3023 23.3812C92.3814 23.1874 92.4221 22.9796 92.4221 22.7699C92.4221 22.5601 92.3814 22.3524 92.3023 22.1586C92.2232 21.9648 92.1073 21.7887 91.9612 21.6404L88.2967 17.9198C88.0007 17.6251 87.6021 17.4609 87.1875 17.463C86.7729 17.465 86.3758 17.6332 86.0827 17.9308C85.7895 18.2285 85.6239 18.6316 85.6219 19.0526C85.62 19.4735 85.7817 19.8782 86.072 20.1788L89.7365 23.8993C90.0436 24.2112 90.4463 24.3672 90.8489 24.3672C91.2516 24.3672 91.654 24.2112 91.9612 23.8993V23.8993ZM96 14.0001C96 13.5765 95.8342 13.1702 95.5392 12.8706C95.2442 12.5711 94.844 12.4028 94.4268 12.4028H89.2444C88.3754 12.4028 87.6711 13.1179 87.6711 14.0001C87.6711 14.8823 88.3754 15.5974 89.2444 15.5974H94.4268C94.844 15.5974 95.2442 15.4291 95.5392 15.1296C95.8342 14.83 96 14.4237 96 14.0001ZM88.2967 10.08L91.9612 6.35941C92.2515 6.05889 92.4133 5.65416 92.4113 5.23321C92.4093 4.81227 92.2437 4.40914 91.9505 4.11147C91.6574 3.8138 91.2603 3.64566 90.8457 3.6436C90.4311 3.64153 90.0325 3.80572 89.7365 4.10046L86.072 7.82104C85.8519 8.0444 85.702 8.32902 85.6412 8.6389C85.5805 8.94878 85.6116 9.26999 85.7307 9.5619C85.8498 9.85381 86.0515 10.1033 86.3103 10.2788C86.569 10.4543 86.8733 10.5479 87.1845 10.5478C87.3911 10.5481 87.5957 10.5069 87.7866 10.4266C87.9774 10.3463 88.1508 10.2285 88.2967 10.08V10.08Z" fill="#FFC145"/>
<path d="M21.9687 23.6979C16.3676 26.1523 13.0671 30.9548 14.5968 34.4246C16.1266 37.8945 21.9074 38.7177 27.5085 36.2633C33.1096 33.809 36.4101 29.0065 34.8804 25.5366C33.3506 22.0668 27.5698 21.2436 21.9687 23.6979Z" fill="#80878C"/>
</svg>
