<svg width="136" height="129" viewBox="0 0 136 129" fill="none" xmlns="http://www.w3.org/2000/svg">
<path d="M68 0C105.551 0 136 28.8814 136 64.5C136 100.119 105.551 129 68 129C30.4486 129 0 100.174 0 64.5552C0 28.8814 30.4486 0 68 0Z" fill="#E5E4DF"/>
<path d="M68.5 20C94.2111 20 115 39.9502 115 64.5C115 89.0498 94.1532 109 68.5 109C42.8468 109 22 89.0498 22 64.5C22 39.9502 42.8468 20 68.5 20V20Z" fill="#00B1FF"/>
<path d="M68.5 40C82.5891 40 94 50.9635 94 64.5C94 78.0365 82.5891 89 68.5 89C54.411 89 43 78.0365 43 64.5C43 50.9635 54.411 40 68.5 40V40Z" fill="#2B3B47"/>
<path d="M87.5 40C93.2951 40 98 44.7049 98 50.5C98 56.2951 93.2951 61 87.5 61C81.7049 61 77 56.2951 77 50.5C77 44.7049 81.7049 40 87.5 40Z" fill="#D4EDF6"/>
<path d="M93 59.3429C91.2796 52.2571 86.5771 46.3143 80.2688 43C78.2617 44.8857 77 47.5714 77 50.5429C77 56.3143 81.7025 61 87.4946 61C89.4444 61 91.3943 60.3714 93 59.3429V59.3429Z" fill="#D6DBDE"/>
</svg>
