<svg width="18" height="29" viewBox="0 0 18 29" fill="none" xmlns="http://www.w3.org/2000/svg">
<path d="M8.703 27.312C13.0953 27.312 16.656 21.3659 16.656 14.031C16.656 6.69611 13.0953 0.75 8.703 0.75C4.31068 0.75 0.75 6.69611 0.75 14.031C0.75 21.3659 4.31068 27.312 8.703 27.312Z" fill="#F5F8FA"/>
<path d="M8.703 28.062C3.823 28.062 0 21.899 0 14.031C0 6.163 3.823 0 8.703 0C13.583 0 17.407 6.163 17.407 14.031C17.407 21.899 13.583 28.062 8.703 28.062ZM8.703 1.5C4.731 1.5 1.5 7.122 1.5 14.031C1.5 20.941 4.731 26.562 8.703 26.562C12.675 26.562 15.907 20.941 15.907 14.031C15.907 7.121 12.675 1.5 8.703 1.5V1.5Z" fill="#E1E8ED"/>
<path d="M6.46897 18.991C9.2083 18.991 11.429 16.7703 11.429 14.031C11.429 11.2917 9.2083 9.07098 6.46897 9.07098C3.72964 9.07098 1.50897 11.2917 1.50897 14.031C1.50897 16.7703 3.72964 18.991 6.46897 18.991Z" fill="#8899A6"/>
<path d="M6.46899 17.596C8.43789 17.596 10.034 15.9999 10.034 14.031C10.034 12.0621 8.43789 10.466 6.46899 10.466C4.5001 10.466 2.90399 12.0621 2.90399 14.031C2.90399 15.9999 4.5001 17.596 6.46899 17.596Z" fill="#292F33"/>
<path d="M7.78598 12.9C8.57354 12.9 9.21198 12.2616 9.21198 11.474C9.21198 10.6865 8.57354 10.048 7.78598 10.048C6.99843 10.048 6.35999 10.6865 6.35999 11.474C6.35999 12.2616 6.99843 12.9 7.78598 12.9Z" fill="#F5F8FA"/>
</svg>
