<svg width="30" height="15" viewBox="0 0 64 30" fill="none" xmlns="http://www.w3.org/2000/svg">
<path d="M64 18.6V11.4C64 10.0746 62.9256 9 61.6 9H58V21H61.6C62.9256 21 64 19.9254 64 18.6Z" fill="#D5DCED"/>
<path d="M64 16V11.3333C64 10.0447 62.9256 9 61.6 9H58V13.6667H61.6C62.9256 13.6665 64 14.7114 64 16Z" fill="#C7CFE2"/>
<path d="M-6.11003e-07 25.3845V4.61534C-6.11003e-07 2.06638 1.98985 0 4.44441 0H55.5556C58.0101 0 60 2.06638 60 4.61534V25.3847C60 27.9336 58.0101 30 55.5556 30H4.44441C1.98985 30 -6.11003e-07 27.9336 -6.11003e-07 25.3845Z" fill="#7F8499"/>
<path d="M4.44441 11.4286H55.5556C58.0101 11.4286 60 13.4753 60 16V4.57139C60 2.0467 58.0101 0 55.5556 0H4.44441C1.98985 0 -6.11003e-07 2.0467 -6.11003e-07 4.57139V16C-6.11003e-07 13.4753 1.98985 11.4286 4.44441 11.4286Z" fill="#707487"/>
<path d="M2 25.8636V3.13641C2 2.50886 2.49544 2 3.10643 2H52.8936C53.5046 2 54 2.50886 54 3.13641V25.8636C54 26.4911 53.5046 27 52.8936 27H3.10643C2.49544 26.9999 2 26.4911 2 25.8636Z" fill="#B4FF87"/>
<path d="M32.7733 24.5615C33.5948 24.0255 34.0852 23.097 34.0852 22.0776V18.2971L41.3557 21.367C42.2087 21.7273 43.1725 21.6179 43.9336 21.074C44.6946 20.5301 45.1489 19.6262 45.1489 18.6562V12.2874C45.1489 11.961 45.0943 11.6467 45.0124 11.3433H54V3.16796C54 2.52299 53.5046 2 52.8936 2H3.10643C2.49544 2 2 2.52299 2 3.16796V11.9912C2.65323 11.5899 3.40259 11.3433 4.21274 11.3433H12.7808C12.2487 11.8744 11.9379 12.609 11.9379 13.3891C11.9379 14.4521 12.5008 15.4096 13.407 15.8879L30.0821 24.6891C30.9459 25.1449 31.9518 25.0971 32.7733 24.5615Z" fill="#9BF57D"/>
<path d="M42.1189 11.2357L28.0694 8.01348C27.7224 7.93388 27.3953 8.217 27.3953 8.59676V15.0168L14.5103 13.0466C14.0095 12.9702 13.7955 13.7038 14.2478 13.9459L31.0471 22.9362C31.4177 23.1346 31.8537 22.8462 31.8537 22.4027V15.0168L42.2356 19.4615C42.6016 19.6183 43 19.3298 43 18.9077V12.4021C43 11.8397 42.6328 11.3536 42.1189 11.2357Z" fill="#FFF082"/>
</svg>
