<svg width="13" height="19" viewBox="0 0 13 19" fill="none" xmlns="http://www.w3.org/2000/svg">
<path d="M2.78191 0.316697L10.2717 0.316697C11.1277 0.316697 11.8766 0.506695 11.8766 0.760038V1.10838C11.8766 1.36172 11.1277 1.58337 10.2717 1.58337L2.67496 1.58337C1.81895 1.58337 1.07002 1.36172 1.07002 1.10838V0.760038C1.17685 0.506695 1.9259 0.316697 2.78191 0.316697Z" fill="#FCC309"/>
<path d="M6.09873 17.3217L6.52667 18.6833L6.95461 17.3217C7.38255 16.1183 7.59659 14.8517 7.59659 13.6167L7.59659 11.7167H5.45663V13.6167C5.45676 14.8517 5.67079 16.1183 6.09873 17.3217Z" fill="#FCC309"/>
<path d="M9.73669 13.6167V11.7167H7.59673V13.6167C7.59673 14.8834 7.3827 16.1183 6.95476 17.3217L6.52682 18.6833L7.91772 17.3217C9.09472 16.1184 9.73669 14.8517 9.73669 13.6167Z" fill="white"/>
<path d="M5.13576 17.3217L6.52679 18.6833L6.09885 17.3217C5.67091 16.1183 5.45688 14.8517 5.45688 13.6167V11.7167H3.31692V13.6167C3.31679 14.8517 3.95877 16.1183 5.13576 17.3217Z" fill="#FD9808"/>
<path d="M4.60074 11.7167H8.45259L9.73654 10.45V2.84997L9.20152 1.86829C9.20152 1.6783 8.88053 1.5833 8.45259 1.5833H4.49366C4.17267 1.5833 3.85169 1.70995 3.74473 1.86829L3.31679 2.84997L3.31679 10.45L4.60074 11.7167Z" fill="#FFDD09"/>
<path d="M9.20167 1.86833L9.73669 2.85001V10.45L8.45274 11.7167H9.73669L11.8766 10.45V2.84997L11.0206 1.86829C10.9137 1.6783 10.3787 1.5833 9.84364 1.5833H8.55969C8.88068 1.58333 9.20167 1.67833 9.20167 1.86833Z" fill="white"/>
<path d="M3.31679 11.7167H4.60074L3.31679 10.45L3.31679 2.84997L3.85181 1.86829C3.85181 1.6783 4.1728 1.5833 4.60074 1.5833H3.31679C2.78177 1.5833 2.24687 1.70995 2.03284 1.86829L1.17683 2.84997L1.17683 10.45L3.31679 11.7167Z" fill="#FD9808"/>
<path d="M1.17685 2.5334L11.8765 2.5334C12.5185 2.5334 12.9464 2.66005 12.9464 2.85005V10.4501C12.9464 10.6401 12.5185 10.7667 11.8765 10.7667L1.17685 10.7667C0.534876 10.7667 0.106934 10.6401 0.106934 10.4501V2.85005C0.106934 2.66005 0.534876 2.5334 1.17685 2.5334ZM10.8066 3.16674L2.24677 3.16674V10.1334L10.8066 10.1334L10.8066 3.16674Z" fill="black"/>
<path d="M3.20985 1.26665L9.84364 1.26665C10.9136 1.26665 11.8766 1.4883 12.0906 1.80499L12.9466 2.75498C12.9466 2.84998 12.9466 2.94497 12.7325 3.03997C12.5185 3.10332 12.1975 3.16663 11.8765 3.16663L1.17685 3.16663C0.855861 3.16663 0.534874 3.13497 0.32084 3.03997C0.106805 2.94497 0.106807 2.84998 0.106807 2.75498L0.962816 1.7733C1.17685 1.45665 2.13981 1.26665 3.20985 1.26665ZM10.4856 2.53332L9.95059 1.93164C9.95059 1.89999 9.95059 1.89999 9.84364 1.89999L3.31681 1.89999C3.20986 1.89999 3.10277 1.93164 3.10277 1.93164L2.56775 2.53332L10.4856 2.53332Z" fill="black"/>
<path d="M2.78191 9.06818e-06L10.2717 9.06818e-06C11.7697 9.06818e-06 12.9467 0.34835 12.9467 0.76V1.10834C12.9467 1.55168 11.7697 1.90002 10.2717 1.90002L2.67496 1.90002C1.17697 1.90002 -2.66816e-05 1.55168 -2.66816e-05 1.10834V0.76C0.106927 0.34835 1.28392 9.06818e-06 2.78191 9.06818e-06ZM10.2717 1.26669C10.5927 1.26669 10.8067 1.20334 10.8067 1.10834V0.76C10.8067 0.696654 10.5927 0.633347 10.2717 0.633347L2.67496 0.633347C2.46092 0.633347 2.24702 0.696692 2.24702 0.76V1.10834C2.24702 1.20334 2.46105 1.26669 2.78204 1.26669L10.2717 1.26669Z" fill="black"/>
<path d="M1.17684 10.1334H11.8765C12.1975 10.1334 12.6254 10.1968 12.8395 10.2918C13.0535 10.3868 13.0535 10.5134 12.8395 10.6084L10.6995 11.8751C10.4855 11.9701 10.1645 12.0334 9.73655 12.0334H3.31667C2.88873 12.0334 2.56774 11.9701 2.35371 11.8434L0.213749 10.5768C-0.000285199 10.4818 0.106796 10.3551 0.213749 10.2601C0.427911 10.1651 0.855851 10.1334 1.17684 10.1334ZM10.1646 10.7668L2.88886 10.7668L3.95877 11.4001H9.0947L10.1646 10.7668Z" fill="black"/>
<path d="M3.31682 11.4H9.7367C10.3787 11.4 10.8066 11.5267 10.8066 11.7167V13.6167C10.8066 13.8067 10.3787 13.9333 9.7367 13.9333H3.31682C2.67484 13.9333 2.2469 13.8067 2.2469 13.6167V11.7167C2.2469 11.5267 2.67484 11.4 3.31682 11.4ZM8.66665 12.0334H4.38673V13.3H8.66665V12.0334V12.0334Z" fill="black"/>
<path d="M3.31682 13.3L9.7367 13.3C10.3787 13.3 10.8066 13.4266 10.8066 13.6166C10.8066 14.8833 10.1646 16.1816 8.88068 17.4166L7.59674 18.7783C7.3827 18.905 6.95476 19 6.52682 19C6.09888 19 5.67081 18.905 5.4569 18.7783L4.17295 17.4167C2.889 16.1817 2.24703 14.8833 2.24703 13.6167C2.2469 13.4266 2.67484 13.3 3.31682 13.3ZM8.66665 13.9333H4.38673C4.49368 15.0417 5.13566 16.15 6.2057 17.2267L6.52669 17.575L6.84768 17.2267C7.91772 16.15 8.5597 15.0417 8.66665 13.9333Z" fill="black"/>
</svg>
