<?xml version="1.0" encoding="iso-8859-1"?>
<!-- Generator: Adobe Illustrator 19.0.0, SVG Export Plug-In . SVG Version: 6.00 Build 0)  -->
<svg version="1.1" id="Layer_1" xmlns="http://www.w3.org/2000/svg" xmlns:xlink="http://www.w3.org/1999/xlink" x="0px" y="0px" height="10" width="10"
	 viewBox="0 0 512 512" style="enable-background:new 0 0 512 512;" xml:space="preserve">
<polygon style="fill:#00B4D7;" points="410.264,165.57 357.07,218.764 293.237,154.931 293.237,357.068 357.07,293.235 
	410.264,346.43 256.001,500.693 101.737,346.43 154.932,293.235 218.765,357.068 218.765,154.931 154.932,218.764 101.737,165.57 
	256.001,11.306 "/>
<polygon style="fill:#0093C4;" points="101.737,165.57 154.932,218.764 218.765,154.931 218.765,357.068 154.932,293.235 
	101.737,346.43 256.001,500.693 256.001,11.306 "/>
<path d="M256.001,512L90.43,346.43l64.501-64.501l55.838,55.838V174.233l-55.838,55.838l-64.501-64.5L256.001,0l165.57,165.57
	l-64.501,64.5l-55.838-55.838v163.533l55.838-55.838l64.501,64.501L256.001,512z M113.044,346.43l142.957,142.956L398.957,346.43
	l-41.888-41.888l-71.828,71.828V135.629l71.828,71.828l41.888-41.887L256.001,22.614L113.044,165.57l41.888,41.886l71.828-71.828
	V376.37l-71.828-71.828L113.044,346.43z"/>
<g>
	
		<rect x="194.795" y="37.151" transform="matrix(-0.7071 -0.7071 0.7071 -0.7071 266.7194 335.2389)" style="fill:#FFFFFF;" width="15.99" height="150.458"/>
	
		<rect x="301.172" y="324.381" transform="matrix(-0.7071 -0.7071 0.7071 -0.7071 245.2148 900.7918)" style="fill:#FFFFFF;" width="15.99" height="150.458"/>
</g>
</svg>
