<?xml version="1.0" encoding="iso-8859-1"?>
<!-- Generator: Adobe Illustrator 19.0.0, SVG Export Plug-In . SVG Version: 6.00 Build 0)  -->
<svg version="1.1" id="Layer_1" xmlns="http://www.w3.org/2000/svg" xmlns:xlink="http://www.w3.org/1999/xlink" x="0px" y="0px" height="10" width="10"
	 viewBox="0 0 511.999 511.999" style="enable-background:new 0 0 511.999 511.999;" xml:space="preserve">
<polygon style="fill:#00B4D7;" points="165.571,101.736 218.765,154.93 154.932,218.763 357.069,218.763 293.236,154.93 
	346.43,101.736 500.694,255.999 346.43,410.263 293.236,357.068 357.069,293.235 154.932,293.235 218.765,357.068 165.571,410.263 
	11.307,255.999 "/>
<polygon style="fill:#0093C4;" points="165.571,410.263 218.765,357.068 154.932,293.235 357.069,293.235 293.236,357.068 
	346.43,410.263 500.694,255.999 11.307,255.999 "/>
<path d="M346.43,421.569l-64.501-64.501l55.839-55.838H174.233l55.838,55.838l-64.501,64.501L0,255.999L165.57,90.43l64.501,64.5
	l-55.838,55.838h163.533l-55.839-55.838l64.501-64.5l165.57,165.57L346.43,421.569z M22.614,255.999l142.957,142.957l41.888-41.888
	l-71.828-71.828h240.742l-71.829,71.828l41.888,41.888l142.957-142.957L346.43,113.044l-41.888,41.887l71.829,71.828H135.63
	l71.828-71.828l-41.888-41.887L22.614,255.999z"/>
<g>
	
		<rect x="37.155" y="301.195" transform="matrix(-0.7071 -0.7071 0.7071 -0.7071 -26.7782 607.2877)" style="fill:#FFFFFF;" width="150.458" height="15.99"/>
	
		<rect x="324.396" y="194.805" transform="matrix(-0.7071 -0.7071 0.7071 -0.7071 538.8013 628.7798)" style="fill:#FFFFFF;" width="150.458" height="15.99"/>
	</g>	
</svg>
