<?xml version="1.0" encoding="iso-8859-1"?>
<!-- Generator: Adobe Illustrator 19.0.0, SVG Export Plug-In . SVG Version: 6.00 Build 0)  -->
<svg version="1.1" id="Layer_1" xmlns="http://www.w3.org/2000/svg" xmlns:xlink="http://www.w3.org/1999/xlink" x="0px" y="0px" height="10" width="10"
	 viewBox="0 0 473.931 473.931" style="enable-background:new 0 0 473.931 473.931;" xml:space="preserve">
<circle style="fill:#4ABC96;" cx="236.966" cy="236.966" r="236.966"/>
<path style="fill:#A07238;" d="M113.895,379.224c-5.298,5.302-13.908,5.302-19.214,0l0,0c-5.313-5.313-5.313-13.912,0-19.221
	l99.456-99.46c5.306-5.291,13.908-5.291,19.214,0.011l0,0c5.306,5.295,5.306,13.893-0.007,19.21L113.895,379.224z"/>
<path style="fill:#D4A160;" d="M127.182,382.868c-4.647,4.636-16.501,0.318-26.477-9.665l0,0
	c-9.983-9.983-14.308-21.841-9.661-26.477l105.619-105.637c4.647-4.636,16.509-0.311,26.484,9.672l0,0
	c9.99,9.964,14.316,21.822,9.669,26.484L127.182,382.868z"/>
<circle style="fill:#60C3B6;" cx="277.639" cy="196.255" r="97.697"/>
<circle style="fill:#83CECA;" cx="283.401" cy="205.685" r="76.743"/>
<path style="fill:#A07238;" d="M191.773,245.504L177.88,259.39c0,0,12.688,28.026,39.977,32.329l10.084-10.073v-13.029
	L191.773,245.504z"/>
<path style="fill:#EBEDEF;" d="M201.909,120.545c-41.833,41.822-41.833,109.637,0,151.451
	c41.833,41.833,109.637,41.833,151.463,0.011c41.818-41.825,41.818-109.641,0-151.463
	C311.546,78.715,243.738,78.715,201.909,120.545z M334.274,252.913c-31.27,31.277-81.989,31.285-113.274,0
	c-31.277-31.274-31.277-82.004,0-113.274c31.285-31.285,82.004-31.285,113.274-0.007
	C365.574,170.916,365.559,221.636,334.274,252.913z"/>
<g style="opacity:0.7;">
	<rect x="267.723" y="161.794" style="fill:#FFFFFF;" width="19.843" height="68.953"/>
	<path style="fill:#FFFFFF;" d="M287.551,227.941c-6.615,0-13.227,0-19.843,0c0.935,0.935,1.871,1.871,2.806,2.806
		c0-22.986,0-45.968,0-68.953c-0.935,0.935-1.871,1.871-2.806,2.806c6.615,0,13.227,0,19.843,0
		c-0.935-0.935-1.871-1.871-2.806-2.806c0,22.986,0,45.968,0,68.953c0,3.622,5.613,3.622,5.613,0c0-22.986,0-45.968,0-68.953
		c0-1.53-1.276-2.806-2.806-2.806c-6.615,0-13.227,0-19.843,0c-1.53,0-2.806,1.276-2.806,2.806c0,22.986,0,45.968,0,68.953
		c0,1.53,1.276,2.806,2.806,2.806c6.615,0,13.227,0,19.843,0C291.173,233.553,291.173,227.941,287.551,227.941z"/>
	<rect x="243.14" y="186.355" style="fill:#FFFFFF;" width="68.961" height="19.839"/>
	<path style="fill:#FFFFFF;" d="M245.961,206.19c0-6.615,0-13.223,0-19.839c-0.935,0.935-1.871,1.871-2.806,2.806
		c22.989,0,45.971,0,68.961,0c-0.935-0.935-1.871-1.871-2.806-2.806c0,6.615,0,13.223,0,19.839c0.935-0.935,1.871-1.871,2.806-2.806
		c-22.989,0-45.971,0-68.961,0c-3.622,0-3.622,5.613,0,5.613c22.989,0,45.971,0,68.961,0c1.53,0,2.806-1.276,2.806-2.806
		c0-6.615,0-13.223,0-19.839c0-1.53-1.276-2.806-2.806-2.806c-22.989,0-45.971,0-68.961,0c-1.53,0-2.806,1.276-2.806,2.806
		c0,6.615,0,13.223,0,19.839C240.348,209.812,245.961,209.812,245.961,206.19z"/>
</g>
</svg>
