<?xml version="1.0" encoding="iso-8859-1"?>
<!-- Generator: Adobe Illustrator 19.0.0, SVG Export Plug-In . SVG Version: 6.00 Build 0)  -->
<svg version="1.1" id="Layer_1" xmlns="http://www.w3.org/2000/svg" xmlns:xlink="http://www.w3.org/1999/xlink" x="0px" y="0px" height="10" width="10"
	 viewBox="0 0 512 512" style="enable-background:new 0 0 512 512;" xml:space="preserve">
<path style="fill:#47CEAC;" d="M512,256.006C512,397.402,397.394,512.004,256.004,512C114.606,512.004,0,397.402,0,256.006
	C-0.007,114.61,114.606,0,256.004,0C397.394,0,512,114.614,512,256.006z"/>
<path style="fill:#36BB9A;" d="M501.432,328.826L352.908,180.302c-2.762-2.762-7.235-2.762-9.998,0
	c-2.763,2.762-2.762,7.235,0,9.998l58.63,58.63h-163.85c-0.022-0.023-68.311-68.338-68.601-68.627c-2.762-2.762-7.235-2.762-9.998,0
	l-70.7,70.7c-2.762,2.762-2.762,7.235,0,9.998c0,0,1.63,1.63,1.631,1.632l91.398,91.398l145.776,145.776l1.628,1.628
	C411.638,476.9,476.899,411.641,501.432,328.826z"/>
<path style="fill:#F4F6F9;" d="M423.607,251.002l-70.7-70.7c-2.762-2.762-7.235-2.762-9.997,0c-2.762,2.762-2.762,7.235,0,9.997
	l58.63,58.63H110.459l58.63-58.63c2.762-2.762,2.762-7.235,0-9.997c-2.762-2.762-7.235-2.762-9.997,0l-70.7,70.7
	c-2.762,2.762-2.762,7.235,0,9.997l70.7,70.7c1.381,1.381,3.189,2.071,4.998,2.071s3.618-0.69,4.998-2.071
	c2.762-2.762,2.762-7.235,0-9.997l-58.63-58.63h291.083l-58.63,58.63c-2.762,2.762-2.762,7.235,0,9.997
	c1.381,1.381,3.189,2.071,4.998,2.071s3.618-0.69,4.998-2.071l70.7-70.7C426.369,258.237,426.369,253.763,423.607,251.002z"/>
</svg>
