<?xml version="1.0" encoding="iso-8859-1"?>
<!-- Generator: Adobe Illustrator 19.0.0, SVG Export Plug-In . SVG Version: 6.00 Build 0)  -->
<svg version="1.1" id="Layer_1" xmlns="http://www.w3.org/2000/svg" xmlns:xlink="http://www.w3.org/1999/xlink" x="0px" y="0px" height="10" width="10"
	 viewBox="0 0 495 495" style="enable-background:new 0 0 495 495;" xml:space="preserve">
<g>
	<path style="fill:#6D2C93;" d="M125.34,247.5l122.16-70.56V0C110.81,0,0,110.81,0,247.5S110.81,495,247.5,495V318.06L125.34,247.5z
		"/>
	<path style="fill:#3D1952;" d="M247.5,0v176.94l40.72-23.52v47.04l81.44-47.04v188.16l-81.44-47.04v47.04l-40.72-23.52V495
		C384.19,495,495,384.19,495,247.5S384.19,0,247.5,0z"/>
	<polygon style="fill:#9CDD05;" points="125.34,247.5 247.5,318.06 288.22,341.58 288.22,294.54 369.66,341.58 369.66,247.5 	"/>
	<polygon style="fill:#B2FA09;" points="369.66,247.5 369.66,153.42 288.22,200.46 288.22,153.42 247.5,176.94 125.34,247.5 	"/>
</g>
</svg>
